<?xml version="1.0" encoding="UTF-8" standalone="no"?>
<!DOCTYPE svg PUBLIC "-//W3C//DTD SVG 1.1//EN"
 "http://www.w3.org/Graphics/SVG/1.1/DTD/svg11.dtd">
<!-- Generated by graphviz version 5.0.0 (20220707.1540)
 -->
<!-- Title: dependencies Pages: 1 -->
<svg width="2733pt" height="174pt"
 viewBox="0.00 0.00 2733.00 173.80" xmlns="http://www.w3.org/2000/svg" xmlns:xlink="http://www.w3.org/1999/xlink">
<g id="graph0" class="graph" transform="scale(1 1) rotate(0) translate(4 169.8)">
<title>dependencies</title>
<polygon fill="white" stroke="transparent" points="-4,4 -4,-169.8 2729,-169.8 2729,4 -4,4"/>
<text text-anchor="middle" x="1362.5" y="-8.2" font-family="sans-serif" font-size="14.00">dependencies</text>
<g id="clust1" class="cluster">
<title>cluster_ConsumptionAndProductionPageModule</title>
<polygon fill="none" stroke="black" stroke-dasharray="1,5" points="8,-32.8 8,-157.8 2717,-157.8 2717,-32.8 8,-32.8"/>
</g>
<g id="clust17" class="cluster">
<title>cluster_ConsumptionAndProductionPageModule_imports</title>
<polygon fill="none" stroke="black" points="2401,-40.8 2401,-92.8 2709,-92.8 2709,-40.8 2401,-40.8"/>
</g>
<g id="clust2" class="cluster">
<title>cluster_ConsumptionAndProductionPageModule_declarations</title>
<polygon fill="none" stroke="black" points="16,-40.8 16,-92.8 2393,-92.8 2393,-40.8 16,-40.8"/>
</g>
<!-- BulletPointsOnTwoSectionsDefaultComponent -->
<g id="node1" class="node">
<title>BulletPointsOnTwoSectionsDefaultComponent</title>
<polygon fill="#ffffb3" stroke="black" points="2385.26,-84.8 2102.74,-84.8 2102.74,-48.8 2385.26,-48.8 2385.26,-84.8"/>
<text text-anchor="middle" x="2244" y="-62.6" font-family="Times,serif" font-size="14.00">BulletPointsOnTwoSectionsDefaultComponent</text>
</g>
<!-- ConsumptionAndProductionPageModule -->
<g id="node15" class="node">
<title>ConsumptionAndProductionPageModule</title>
<polygon fill="#8dd3c7" stroke="black" points="1358.77,-149.8 1355.77,-153.8 1334.77,-153.8 1331.77,-149.8 1111.23,-149.8 1111.23,-113.8 1358.77,-113.8 1358.77,-149.8"/>
<text text-anchor="middle" x="1235" y="-127.6" font-family="Times,serif" font-size="14.00">ConsumptionAndProductionPageModule</text>
</g>
<!-- BulletPointsOnTwoSectionsDefaultComponent&#45;&gt;ConsumptionAndProductionPageModule -->
<g id="edge1" class="edge">
<title>BulletPointsOnTwoSectionsDefaultComponent&#45;&gt;ConsumptionAndProductionPageModule</title>
<path fill="none" stroke="black" d="M2244,-84.84C2244,-106.46 2244,-139.8 2244,-139.8 2244,-139.8 1368.98,-139.8 1368.98,-139.8"/>
<polygon fill="black" stroke="black" points="1368.98,-136.3 1358.98,-139.8 1368.98,-143.3 1368.98,-136.3"/>
</g>
<!-- ConsumptionAndProductionPage -->
<g id="node2" class="node">
<title>ConsumptionAndProductionPage</title>
<polygon fill="#ffffb3" stroke="black" points="2085.22,-84.8 1880.78,-84.8 1880.78,-48.8 2085.22,-48.8 2085.22,-84.8"/>
<text text-anchor="middle" x="1983" y="-62.6" font-family="Times,serif" font-size="14.00">ConsumptionAndProductionPage</text>
</g>
<!-- ConsumptionAndProductionPage&#45;&gt;ConsumptionAndProductionPageModule -->
<g id="edge2" class="edge">
<title>ConsumptionAndProductionPage&#45;&gt;ConsumptionAndProductionPageModule</title>
<path fill="none" stroke="black" d="M1983,-85.02C1983,-105.17 1983,-134.8 1983,-134.8 1983,-134.8 1368.94,-134.8 1368.94,-134.8"/>
<polygon fill="black" stroke="black" points="1368.94,-131.3 1358.94,-134.8 1368.94,-138.3 1368.94,-131.3"/>
</g>
<!-- DefaultTextComponent -->
<g id="node3" class="node">
<title>DefaultTextComponent</title>
<polygon fill="#ffffb3" stroke="black" points="1862.47,-84.8 1713.53,-84.8 1713.53,-48.8 1862.47,-48.8 1862.47,-84.8"/>
<text text-anchor="middle" x="1788" y="-62.6" font-family="Times,serif" font-size="14.00">DefaultTextComponent</text>
</g>
<!-- DefaultTextComponent&#45;&gt;ConsumptionAndProductionPageModule -->
<g id="edge3" class="edge">
<title>DefaultTextComponent&#45;&gt;ConsumptionAndProductionPageModule</title>
<path fill="none" stroke="black" d="M1788,-85.02C1788,-103.63 1788,-129.8 1788,-129.8 1788,-129.8 1369.1,-129.8 1369.1,-129.8"/>
<polygon fill="black" stroke="black" points="1369.1,-126.3 1359.1,-129.8 1369.1,-133.3 1369.1,-126.3"/>
</g>
<!-- FactBoxComponent -->
<g id="node4" class="node">
<title>FactBoxComponent</title>
<polygon fill="#ffffb3" stroke="black" points="1695.27,-84.8 1566.73,-84.8 1566.73,-48.8 1695.27,-48.8 1695.27,-84.8"/>
<text text-anchor="middle" x="1631" y="-62.6" font-family="Times,serif" font-size="14.00">FactBoxComponent</text>
</g>
<!-- FactBoxComponent&#45;&gt;ConsumptionAndProductionPageModule -->
<g id="edge4" class="edge">
<title>FactBoxComponent&#45;&gt;ConsumptionAndProductionPageModule</title>
<path fill="none" stroke="black" d="M1631,-84.83C1631,-101.86 1631,-124.8 1631,-124.8 1631,-124.8 1368.94,-124.8 1368.94,-124.8"/>
<polygon fill="black" stroke="black" points="1368.94,-121.3 1358.94,-124.8 1368.94,-128.3 1368.94,-121.3"/>
</g>
<!-- HeroComponent -->
<g id="node5" class="node">
<title>HeroComponent</title>
<polygon fill="#ffffb3" stroke="black" points="1548.82,-84.8 1439.18,-84.8 1439.18,-48.8 1548.82,-48.8 1548.82,-84.8"/>
<text text-anchor="middle" x="1494" y="-62.6" font-family="Times,serif" font-size="14.00">HeroComponent</text>
</g>
<!-- HeroComponent&#45;&gt;ConsumptionAndProductionPageModule -->
<g id="edge5" class="edge">
<title>HeroComponent&#45;&gt;ConsumptionAndProductionPageModule</title>
<path fill="none" stroke="black" d="M1494,-85.04C1494,-100.37 1494,-119.8 1494,-119.8 1494,-119.8 1368.81,-119.8 1368.81,-119.8"/>
<polygon fill="black" stroke="black" points="1368.81,-116.3 1358.81,-119.8 1368.81,-123.3 1368.81,-116.3"/>
</g>
<!-- ImageComponent -->
<g id="node6" class="node">
<title>ImageComponent</title>
<polygon fill="#ffffb3" stroke="black" points="1421.31,-84.8 1304.69,-84.8 1304.69,-48.8 1421.31,-48.8 1421.31,-84.8"/>
<text text-anchor="middle" x="1363" y="-62.6" font-family="Times,serif" font-size="14.00">ImageComponent</text>
</g>
<!-- ImageComponent&#45;&gt;ConsumptionAndProductionPageModule -->
<g id="edge6" class="edge">
<title>ImageComponent&#45;&gt;ConsumptionAndProductionPageModule</title>
<path fill="none" stroke="black" d="M1331.87,-84.91C1331.87,-84.91 1331.87,-103.79 1331.87,-103.79"/>
<polygon fill="black" stroke="black" points="1328.37,-103.79 1331.87,-113.79 1335.37,-103.79 1328.37,-103.79"/>
</g>
<!-- NavComponent -->
<g id="node7" class="node">
<title>NavComponent</title>
<polygon fill="#ffffb3" stroke="black" points="1287.16,-84.8 1182.84,-84.8 1182.84,-48.8 1287.16,-48.8 1287.16,-84.8"/>
<text text-anchor="middle" x="1235" y="-62.6" font-family="Times,serif" font-size="14.00">NavComponent</text>
</g>
<!-- NavComponent&#45;&gt;ConsumptionAndProductionPageModule -->
<g id="edge7" class="edge">
<title>NavComponent&#45;&gt;ConsumptionAndProductionPageModule</title>
<path fill="none" stroke="black" d="M1235,-84.91C1235,-84.91 1235,-103.79 1235,-103.79"/>
<polygon fill="black" stroke="black" points="1231.5,-103.79 1235,-113.79 1238.5,-103.79 1231.5,-103.79"/>
</g>
<!-- NextProjectComponent -->
<g id="node8" class="node">
<title>NextProjectComponent</title>
<polygon fill="#ffffb3" stroke="black" points="1165.2,-84.8 1016.8,-84.8 1016.8,-48.8 1165.2,-48.8 1165.2,-84.8"/>
<text text-anchor="middle" x="1091" y="-62.6" font-family="Times,serif" font-size="14.00">NextProjectComponent</text>
</g>
<!-- NextProjectComponent&#45;&gt;ConsumptionAndProductionPageModule -->
<g id="edge8" class="edge">
<title>NextProjectComponent&#45;&gt;ConsumptionAndProductionPageModule</title>
<path fill="none" stroke="black" d="M1138.11,-84.91C1138.11,-84.91 1138.11,-103.79 1138.11,-103.79"/>
<polygon fill="black" stroke="black" points="1134.61,-103.79 1138.11,-113.79 1141.61,-103.79 1134.61,-103.79"/>
</g>
<!-- QuoteComponent -->
<g id="node9" class="node">
<title>QuoteComponent</title>
<polygon fill="#ffffb3" stroke="black" points="998.55,-84.8 883.45,-84.8 883.45,-48.8 998.55,-48.8 998.55,-84.8"/>
<text text-anchor="middle" x="941" y="-62.6" font-family="Times,serif" font-size="14.00">QuoteComponent</text>
</g>
<!-- QuoteComponent&#45;&gt;ConsumptionAndProductionPageModule -->
<g id="edge9" class="edge">
<title>QuoteComponent&#45;&gt;ConsumptionAndProductionPageModule</title>
<path fill="none" stroke="black" d="M941,-85.04C941,-100.37 941,-119.8 941,-119.8 941,-119.8 1101.17,-119.8 1101.17,-119.8"/>
<polygon fill="black" stroke="black" points="1101.17,-123.3 1111.17,-119.8 1101.17,-116.3 1101.17,-123.3"/>
</g>
<!-- SecondaryDefaultTextComponent -->
<g id="node10" class="node">
<title>SecondaryDefaultTextComponent</title>
<polygon fill="#ffffb3" stroke="black" points="865.06,-84.8 656.94,-84.8 656.94,-48.8 865.06,-48.8 865.06,-84.8"/>
<text text-anchor="middle" x="761" y="-62.6" font-family="Times,serif" font-size="14.00">SecondaryDefaultTextComponent</text>
</g>
<!-- SecondaryDefaultTextComponent&#45;&gt;ConsumptionAndProductionPageModule -->
<g id="edge10" class="edge">
<title>SecondaryDefaultTextComponent&#45;&gt;ConsumptionAndProductionPageModule</title>
<path fill="none" stroke="black" d="M761,-84.83C761,-101.86 761,-124.8 761,-124.8 761,-124.8 1101.08,-124.8 1101.08,-124.8"/>
<polygon fill="black" stroke="black" points="1101.08,-128.3 1111.08,-124.8 1101.08,-121.3 1101.08,-128.3"/>
</g>
<!-- SecondaryFooterComponent -->
<g id="node11" class="node">
<title>SecondaryFooterComponent</title>
<polygon fill="#ffffb3" stroke="black" points="638.47,-84.8 461.53,-84.8 461.53,-48.8 638.47,-48.8 638.47,-84.8"/>
<text text-anchor="middle" x="550" y="-62.6" font-family="Times,serif" font-size="14.00">SecondaryFooterComponent</text>
</g>
<!-- SecondaryFooterComponent&#45;&gt;ConsumptionAndProductionPageModule -->
<g id="edge11" class="edge">
<title>SecondaryFooterComponent&#45;&gt;ConsumptionAndProductionPageModule</title>
<path fill="none" stroke="black" d="M550,-85.02C550,-103.63 550,-129.8 550,-129.8 550,-129.8 1100.95,-129.8 1100.95,-129.8"/>
<polygon fill="black" stroke="black" points="1100.95,-133.3 1110.95,-129.8 1100.95,-126.3 1100.95,-133.3"/>
</g>
<!-- SubheroComponent -->
<g id="node12" class="node">
<title>SubheroComponent</title>
<polygon fill="#ffffb3" stroke="black" points="443.99,-84.8 316.01,-84.8 316.01,-48.8 443.99,-48.8 443.99,-84.8"/>
<text text-anchor="middle" x="380" y="-62.6" font-family="Times,serif" font-size="14.00">SubheroComponent</text>
</g>
<!-- SubheroComponent&#45;&gt;ConsumptionAndProductionPageModule -->
<g id="edge12" class="edge">
<title>SubheroComponent&#45;&gt;ConsumptionAndProductionPageModule</title>
<path fill="none" stroke="black" d="M380,-85.02C380,-105.17 380,-134.8 380,-134.8 380,-134.8 1101.13,-134.8 1101.13,-134.8"/>
<polygon fill="black" stroke="black" points="1101.13,-138.3 1111.13,-134.8 1101.13,-131.3 1101.13,-138.3"/>
</g>
<!-- TextSliderComponent -->
<g id="node13" class="node">
<title>TextSliderComponent</title>
<polygon fill="#ffffb3" stroke="black" points="298.43,-84.8 157.57,-84.8 157.57,-48.8 298.43,-48.8 298.43,-84.8"/>
<text text-anchor="middle" x="228" y="-62.6" font-family="Times,serif" font-size="14.00">TextSliderComponent</text>
</g>
<!-- TextSliderComponent&#45;&gt;ConsumptionAndProductionPageModule -->
<g id="edge13" class="edge">
<title>TextSliderComponent&#45;&gt;ConsumptionAndProductionPageModule</title>
<path fill="none" stroke="black" d="M228,-84.84C228,-106.46 228,-139.8 228,-139.8 228,-139.8 1101.02,-139.8 1101.02,-139.8"/>
<polygon fill="black" stroke="black" points="1101.02,-143.3 1111.02,-139.8 1101.02,-136.3 1101.02,-143.3"/>
</g>
<!-- VideoComponent -->
<g id="node14" class="node">
<title>VideoComponent</title>
<polygon fill="#ffffb3" stroke="black" points="139.55,-84.8 24.45,-84.8 24.45,-48.8 139.55,-48.8 139.55,-84.8"/>
<text text-anchor="middle" x="82" y="-62.6" font-family="Times,serif" font-size="14.00">VideoComponent</text>
</g>
<!-- VideoComponent&#45;&gt;ConsumptionAndProductionPageModule -->
<g id="edge14" class="edge">
<title>VideoComponent&#45;&gt;ConsumptionAndProductionPageModule</title>
<path fill="none" stroke="black" d="M82,-84.89C82,-107.93 82,-144.8 82,-144.8 82,-144.8 1101.06,-144.8 1101.06,-144.8"/>
<polygon fill="black" stroke="black" points="1101.06,-148.3 1111.06,-144.8 1101.06,-141.3 1101.06,-148.3"/>
</g>
<!-- ConsumptionAndProductionPageRoutingModule -->
<g id="node16" class="node">
<title>ConsumptionAndProductionPageRoutingModule</title>
<polygon fill="#8dd3c7" stroke="black" points="2701.39,-84.8 2698.39,-88.8 2677.39,-88.8 2674.39,-84.8 2408.61,-84.8 2408.61,-48.8 2701.39,-48.8 2701.39,-84.8"/>
<text text-anchor="middle" x="2555" y="-62.6" font-family="Times,serif" font-size="14.00">ConsumptionAndProductionPageRoutingModule</text>
</g>
<!-- ConsumptionAndProductionPageRoutingModule&#45;&gt;ConsumptionAndProductionPageModule -->
<g id="edge15" class="edge">
<title>ConsumptionAndProductionPageRoutingModule&#45;&gt;ConsumptionAndProductionPageModule</title>
<path fill="none" stroke="black" d="M2555,-84.89C2555,-107.93 2555,-144.8 2555,-144.8 2555,-144.8 1368.89,-144.8 1368.89,-144.8"/>
<polygon fill="black" stroke="black" points="1368.89,-141.3 1358.89,-144.8 1368.89,-148.3 1368.89,-141.3"/>
</g>
</g>
</svg>
