<?xml version="1.0" encoding="UTF-8" standalone="no"?>
<!DOCTYPE svg PUBLIC "-//W3C//DTD SVG 1.1//EN"
 "http://www.w3.org/Graphics/SVG/1.1/DTD/svg11.dtd">
<!-- Generated by graphviz version 5.0.0 (20220707.1540)
 -->
<!-- Title: dependencies Pages: 1 -->
<svg width="2578pt" height="174pt"
 viewBox="0.00 0.00 2578.00 173.80" xmlns="http://www.w3.org/2000/svg" xmlns:xlink="http://www.w3.org/1999/xlink">
<g id="graph0" class="graph" transform="scale(1 1) rotate(0) translate(4 169.8)">
<title>dependencies</title>
<polygon fill="white" stroke="transparent" points="-4,4 -4,-169.8 2574,-169.8 2574,4 -4,4"/>
<text text-anchor="middle" x="1285" y="-8.2" font-family="sans-serif" font-size="14.00">dependencies</text>
<g id="clust1" class="cluster">
<title>cluster_ReducedInequalitiesPageModule</title>
<polygon fill="none" stroke="black" stroke-dasharray="1,5" points="8,-32.8 8,-157.8 2562,-157.8 2562,-32.8 8,-32.8"/>
</g>
<g id="clust2" class="cluster">
<title>cluster_ReducedInequalitiesPageModule_declarations</title>
<polygon fill="none" stroke="black" points="286,-40.8 286,-92.8 2554,-92.8 2554,-40.8 286,-40.8"/>
</g>
<g id="clust17" class="cluster">
<title>cluster_ReducedInequalitiesPageModule_imports</title>
<polygon fill="none" stroke="black" points="16,-40.8 16,-92.8 278,-92.8 278,-40.8 16,-40.8"/>
</g>
<!-- DefaultTextComponent -->
<g id="node1" class="node">
<title>DefaultTextComponent</title>
<polygon fill="#ffffb3" stroke="black" points="2546.47,-84.8 2397.53,-84.8 2397.53,-48.8 2546.47,-48.8 2546.47,-84.8"/>
<text text-anchor="middle" x="2472" y="-62.6" font-family="Times,serif" font-size="14.00">DefaultTextComponent</text>
</g>
<!-- ReducedInequalitiesPageModule -->
<g id="node15" class="node">
<title>ReducedInequalitiesPageModule</title>
<polygon fill="#8dd3c7" stroke="black" points="1570.56,-149.8 1567.56,-153.8 1546.56,-153.8 1543.56,-149.8 1369.44,-149.8 1369.44,-113.8 1570.56,-113.8 1570.56,-149.8"/>
<text text-anchor="middle" x="1470" y="-127.6" font-family="Times,serif" font-size="14.00">ReducedInequalitiesPageModule</text>
</g>
<!-- DefaultTextComponent&#45;&gt;ReducedInequalitiesPageModule -->
<g id="edge1" class="edge">
<title>DefaultTextComponent&#45;&gt;ReducedInequalitiesPageModule</title>
<path fill="none" stroke="black" d="M2472,-84.89C2472,-107.93 2472,-144.8 2472,-144.8 2472,-144.8 1580.66,-144.8 1580.66,-144.8"/>
<polygon fill="black" stroke="black" points="1580.66,-141.3 1570.66,-144.8 1580.66,-148.3 1580.66,-141.3"/>
</g>
<!-- FactBoxComponent -->
<g id="node2" class="node">
<title>FactBoxComponent</title>
<polygon fill="#ffffb3" stroke="black" points="2379.27,-84.8 2250.73,-84.8 2250.73,-48.8 2379.27,-48.8 2379.27,-84.8"/>
<text text-anchor="middle" x="2315" y="-62.6" font-family="Times,serif" font-size="14.00">FactBoxComponent</text>
</g>
<!-- FactBoxComponent&#45;&gt;ReducedInequalitiesPageModule -->
<g id="edge2" class="edge">
<title>FactBoxComponent&#45;&gt;ReducedInequalitiesPageModule</title>
<path fill="none" stroke="black" d="M2315,-84.84C2315,-106.46 2315,-139.8 2315,-139.8 2315,-139.8 1580.67,-139.8 1580.67,-139.8"/>
<polygon fill="black" stroke="black" points="1580.67,-136.3 1570.67,-139.8 1580.67,-143.3 1580.67,-136.3"/>
</g>
<!-- HeroComponent -->
<g id="node3" class="node">
<title>HeroComponent</title>
<polygon fill="#ffffb3" stroke="black" points="2232.82,-84.8 2123.18,-84.8 2123.18,-48.8 2232.82,-48.8 2232.82,-84.8"/>
<text text-anchor="middle" x="2178" y="-62.6" font-family="Times,serif" font-size="14.00">HeroComponent</text>
</g>
<!-- HeroComponent&#45;&gt;ReducedInequalitiesPageModule -->
<g id="edge3" class="edge">
<title>HeroComponent&#45;&gt;ReducedInequalitiesPageModule</title>
<path fill="none" stroke="black" d="M2178,-85.02C2178,-105.17 2178,-134.8 2178,-134.8 2178,-134.8 1580.69,-134.8 1580.69,-134.8"/>
<polygon fill="black" stroke="black" points="1580.69,-131.3 1570.69,-134.8 1580.69,-138.3 1580.69,-131.3"/>
</g>
<!-- ImageComponent -->
<g id="node4" class="node">
<title>ImageComponent</title>
<polygon fill="#ffffb3" stroke="black" points="2105.31,-84.8 1988.69,-84.8 1988.69,-48.8 2105.31,-48.8 2105.31,-84.8"/>
<text text-anchor="middle" x="2047" y="-62.6" font-family="Times,serif" font-size="14.00">ImageComponent</text>
</g>
<!-- ImageComponent&#45;&gt;ReducedInequalitiesPageModule -->
<g id="edge4" class="edge">
<title>ImageComponent&#45;&gt;ReducedInequalitiesPageModule</title>
<path fill="none" stroke="black" d="M2047,-85.02C2047,-103.63 2047,-129.8 2047,-129.8 2047,-129.8 1580.84,-129.8 1580.84,-129.8"/>
<polygon fill="black" stroke="black" points="1580.84,-126.3 1570.84,-129.8 1580.84,-133.3 1580.84,-126.3"/>
</g>
<!-- NavComponent -->
<g id="node5" class="node">
<title>NavComponent</title>
<polygon fill="#ffffb3" stroke="black" points="1971.16,-84.8 1866.84,-84.8 1866.84,-48.8 1971.16,-48.8 1971.16,-84.8"/>
<text text-anchor="middle" x="1919" y="-62.6" font-family="Times,serif" font-size="14.00">NavComponent</text>
</g>
<!-- NavComponent&#45;&gt;ReducedInequalitiesPageModule -->
<g id="edge5" class="edge">
<title>NavComponent&#45;&gt;ReducedInequalitiesPageModule</title>
<path fill="none" stroke="black" d="M1919,-84.83C1919,-101.86 1919,-124.8 1919,-124.8 1919,-124.8 1580.76,-124.8 1580.76,-124.8"/>
<polygon fill="black" stroke="black" points="1580.76,-121.3 1570.76,-124.8 1580.76,-128.3 1580.76,-121.3"/>
</g>
<!-- NextProjectComponent -->
<g id="node6" class="node">
<title>NextProjectComponent</title>
<polygon fill="#ffffb3" stroke="black" points="1849.2,-84.8 1700.8,-84.8 1700.8,-48.8 1849.2,-48.8 1849.2,-84.8"/>
<text text-anchor="middle" x="1775" y="-62.6" font-family="Times,serif" font-size="14.00">NextProjectComponent</text>
</g>
<!-- NextProjectComponent&#45;&gt;ReducedInequalitiesPageModule -->
<g id="edge6" class="edge">
<title>NextProjectComponent&#45;&gt;ReducedInequalitiesPageModule</title>
<path fill="none" stroke="black" d="M1775,-85.04C1775,-100.37 1775,-119.8 1775,-119.8 1775,-119.8 1580.71,-119.8 1580.71,-119.8"/>
<polygon fill="black" stroke="black" points="1580.71,-116.3 1570.71,-119.8 1580.71,-123.3 1580.71,-116.3"/>
</g>
<!-- QuoteComponent -->
<g id="node7" class="node">
<title>QuoteComponent</title>
<polygon fill="#ffffb3" stroke="black" points="1682.55,-84.8 1567.45,-84.8 1567.45,-48.8 1682.55,-48.8 1682.55,-84.8"/>
<text text-anchor="middle" x="1625" y="-62.6" font-family="Times,serif" font-size="14.00">QuoteComponent</text>
</g>
<!-- QuoteComponent&#45;&gt;ReducedInequalitiesPageModule -->
<g id="edge7" class="edge">
<title>QuoteComponent&#45;&gt;ReducedInequalitiesPageModule</title>
<path fill="none" stroke="black" d="M1567.31,-66.8C1561.67,-66.8 1557.99,-66.8 1557.99,-66.8 1557.99,-66.8 1557.99,-103.69 1557.99,-103.69"/>
<polygon fill="black" stroke="black" points="1554.49,-103.69 1557.99,-113.69 1561.49,-103.69 1554.49,-103.69"/>
</g>
<!-- ReducedInequalitiesPage -->
<g id="node8" class="node">
<title>ReducedInequalitiesPage</title>
<polygon fill="#ffffb3" stroke="black" points="1548.5,-84.8 1391.5,-84.8 1391.5,-48.8 1548.5,-48.8 1548.5,-84.8"/>
<text text-anchor="middle" x="1470" y="-62.6" font-family="Times,serif" font-size="14.00">ReducedInequalitiesPage</text>
</g>
<!-- ReducedInequalitiesPage&#45;&gt;ReducedInequalitiesPageModule -->
<g id="edge8" class="edge">
<title>ReducedInequalitiesPage&#45;&gt;ReducedInequalitiesPageModule</title>
<path fill="none" stroke="black" d="M1470,-84.91C1470,-84.91 1470,-103.79 1470,-103.79"/>
<polygon fill="black" stroke="black" points="1466.5,-103.79 1470,-113.79 1473.5,-103.79 1466.5,-103.79"/>
</g>
<!-- SecondaryDefaultTextComponent -->
<g id="node9" class="node">
<title>SecondaryDefaultTextComponent</title>
<polygon fill="#ffffb3" stroke="black" points="1373.06,-84.8 1164.94,-84.8 1164.94,-48.8 1373.06,-48.8 1373.06,-84.8"/>
<text text-anchor="middle" x="1269" y="-62.6" font-family="Times,serif" font-size="14.00">SecondaryDefaultTextComponent</text>
</g>
<!-- SecondaryDefaultTextComponent&#45;&gt;ReducedInequalitiesPageModule -->
<g id="edge9" class="edge">
<title>SecondaryDefaultTextComponent&#45;&gt;ReducedInequalitiesPageModule</title>
<path fill="none" stroke="black" d="M1373.26,-66.8C1378.8,-66.8 1382.14,-66.8 1382.14,-66.8 1382.14,-66.8 1382.14,-103.69 1382.14,-103.69"/>
<polygon fill="black" stroke="black" points="1378.64,-103.69 1382.14,-113.69 1385.64,-103.69 1378.64,-103.69"/>
</g>
<!-- SecondaryFooterComponent -->
<g id="node10" class="node">
<title>SecondaryFooterComponent</title>
<polygon fill="#ffffb3" stroke="black" points="1146.47,-84.8 969.53,-84.8 969.53,-48.8 1146.47,-48.8 1146.47,-84.8"/>
<text text-anchor="middle" x="1058" y="-62.6" font-family="Times,serif" font-size="14.00">SecondaryFooterComponent</text>
</g>
<!-- SecondaryFooterComponent&#45;&gt;ReducedInequalitiesPageModule -->
<g id="edge10" class="edge">
<title>SecondaryFooterComponent&#45;&gt;ReducedInequalitiesPageModule</title>
<path fill="none" stroke="black" d="M1058,-85.04C1058,-100.37 1058,-119.8 1058,-119.8 1058,-119.8 1359.21,-119.8 1359.21,-119.8"/>
<polygon fill="black" stroke="black" points="1359.21,-123.3 1369.21,-119.8 1359.21,-116.3 1359.21,-123.3"/>
</g>
<!-- SmallBulletPointSectionComponent -->
<g id="node11" class="node">
<title>SmallBulletPointSectionComponent</title>
<polygon fill="#ffffb3" stroke="black" points="951.78,-84.8 732.22,-84.8 732.22,-48.8 951.78,-48.8 951.78,-84.8"/>
<text text-anchor="middle" x="842" y="-62.6" font-family="Times,serif" font-size="14.00">SmallBulletPointSectionComponent</text>
</g>
<!-- SmallBulletPointSectionComponent&#45;&gt;ReducedInequalitiesPageModule -->
<g id="edge11" class="edge">
<title>SmallBulletPointSectionComponent&#45;&gt;ReducedInequalitiesPageModule</title>
<path fill="none" stroke="black" d="M842,-84.83C842,-101.86 842,-124.8 842,-124.8 842,-124.8 1359.45,-124.8 1359.45,-124.8"/>
<polygon fill="black" stroke="black" points="1359.45,-128.3 1369.45,-124.8 1359.45,-121.3 1359.45,-128.3"/>
</g>
<!-- SubheroComponent -->
<g id="node12" class="node">
<title>SubheroComponent</title>
<polygon fill="#ffffb3" stroke="black" points="713.99,-84.8 586.01,-84.8 586.01,-48.8 713.99,-48.8 713.99,-84.8"/>
<text text-anchor="middle" x="650" y="-62.6" font-family="Times,serif" font-size="14.00">SubheroComponent</text>
</g>
<!-- SubheroComponent&#45;&gt;ReducedInequalitiesPageModule -->
<g id="edge12" class="edge">
<title>SubheroComponent&#45;&gt;ReducedInequalitiesPageModule</title>
<path fill="none" stroke="black" d="M650,-85.02C650,-103.63 650,-129.8 650,-129.8 650,-129.8 1359.45,-129.8 1359.45,-129.8"/>
<polygon fill="black" stroke="black" points="1359.45,-133.3 1369.45,-129.8 1359.45,-126.3 1359.45,-133.3"/>
</g>
<!-- TextSliderComponent -->
<g id="node13" class="node">
<title>TextSliderComponent</title>
<polygon fill="#ffffb3" stroke="black" points="568.43,-84.8 427.57,-84.8 427.57,-48.8 568.43,-48.8 568.43,-84.8"/>
<text text-anchor="middle" x="498" y="-62.6" font-family="Times,serif" font-size="14.00">TextSliderComponent</text>
</g>
<!-- TextSliderComponent&#45;&gt;ReducedInequalitiesPageModule -->
<g id="edge13" class="edge">
<title>TextSliderComponent&#45;&gt;ReducedInequalitiesPageModule</title>
<path fill="none" stroke="black" d="M498,-85.02C498,-105.17 498,-134.8 498,-134.8 498,-134.8 1359.19,-134.8 1359.19,-134.8"/>
<polygon fill="black" stroke="black" points="1359.19,-138.3 1369.19,-134.8 1359.19,-131.3 1359.19,-138.3"/>
</g>
<!-- VideoComponent -->
<g id="node14" class="node">
<title>VideoComponent</title>
<polygon fill="#ffffb3" stroke="black" points="409.55,-84.8 294.45,-84.8 294.45,-48.8 409.55,-48.8 409.55,-84.8"/>
<text text-anchor="middle" x="352" y="-62.6" font-family="Times,serif" font-size="14.00">VideoComponent</text>
</g>
<!-- VideoComponent&#45;&gt;ReducedInequalitiesPageModule -->
<g id="edge14" class="edge">
<title>VideoComponent&#45;&gt;ReducedInequalitiesPageModule</title>
<path fill="none" stroke="black" d="M352,-84.84C352,-106.46 352,-139.8 352,-139.8 352,-139.8 1359.31,-139.8 1359.31,-139.8"/>
<polygon fill="black" stroke="black" points="1359.31,-143.3 1369.31,-139.8 1359.31,-136.3 1359.31,-143.3"/>
</g>
<!-- ReducedInequalitiesPageRoutingModule -->
<g id="node16" class="node">
<title>ReducedInequalitiesPageRoutingModule</title>
<polygon fill="#8dd3c7" stroke="black" points="270.17,-84.8 267.17,-88.8 246.17,-88.8 243.17,-84.8 23.83,-84.8 23.83,-48.8 270.17,-48.8 270.17,-84.8"/>
<text text-anchor="middle" x="147" y="-62.6" font-family="Times,serif" font-size="14.00">ReducedInequalitiesPageRoutingModule</text>
</g>
<!-- ReducedInequalitiesPageRoutingModule&#45;&gt;ReducedInequalitiesPageModule -->
<g id="edge15" class="edge">
<title>ReducedInequalitiesPageRoutingModule&#45;&gt;ReducedInequalitiesPageModule</title>
<path fill="none" stroke="black" d="M147,-84.89C147,-107.93 147,-144.8 147,-144.8 147,-144.8 1359.2,-144.8 1359.2,-144.8"/>
<polygon fill="black" stroke="black" points="1359.2,-148.3 1369.2,-144.8 1359.2,-141.3 1359.2,-148.3"/>
</g>
</g>
</svg>
