<?xml version="1.0" encoding="UTF-8" standalone="no"?>
<!DOCTYPE svg PUBLIC "-//W3C//DTD SVG 1.1//EN"
 "http://www.w3.org/Graphics/SVG/1.1/DTD/svg11.dtd">
<!-- Generated by graphviz version 5.0.0 (20220707.1540)
 -->
<!-- Title: dependencies Pages: 1 -->
<svg width="1725pt" height="174pt"
 viewBox="0.00 0.00 1725.00 173.80" xmlns="http://www.w3.org/2000/svg" xmlns:xlink="http://www.w3.org/1999/xlink">
<g id="graph0" class="graph" transform="scale(1 1) rotate(0) translate(4 169.8)">
<title>dependencies</title>
<polygon fill="white" stroke="transparent" points="-4,4 -4,-169.8 1721,-169.8 1721,4 -4,4"/>
<text text-anchor="middle" x="858.5" y="-8.2" font-family="sans-serif" font-size="14.00">dependencies</text>
<g id="clust1" class="cluster">
<title>cluster_AboutPageModule</title>
<polygon fill="none" stroke="black" stroke-dasharray="1,5" points="8,-32.8 8,-157.8 1709,-157.8 1709,-32.8 8,-32.8"/>
</g>
<g id="clust13" class="cluster">
<title>cluster_AboutPageModule_imports</title>
<polygon fill="none" stroke="black" points="1519,-40.8 1519,-92.8 1701,-92.8 1701,-40.8 1519,-40.8"/>
</g>
<g id="clust2" class="cluster">
<title>cluster_AboutPageModule_declarations</title>
<polygon fill="none" stroke="black" points="16,-40.8 16,-92.8 1511,-92.8 1511,-40.8 16,-40.8"/>
</g>
<!-- AboutPage -->
<g id="node1" class="node">
<title>AboutPage</title>
<polygon fill="#ffffb3" stroke="black" points="1503.21,-84.8 1424.79,-84.8 1424.79,-48.8 1503.21,-48.8 1503.21,-84.8"/>
<text text-anchor="middle" x="1464" y="-62.6" font-family="Times,serif" font-size="14.00">AboutPage</text>
</g>
<!-- AboutPageModule -->
<g id="node11" class="node">
<title>AboutPageModule</title>
<polygon fill="#8dd3c7" stroke="black" points="948.77,-149.8 945.77,-153.8 924.77,-153.8 921.77,-149.8 827.23,-149.8 827.23,-113.8 948.77,-113.8 948.77,-149.8"/>
<text text-anchor="middle" x="888" y="-127.6" font-family="Times,serif" font-size="14.00">AboutPageModule</text>
</g>
<!-- AboutPage&#45;&gt;AboutPageModule -->
<g id="edge1" class="edge">
<title>AboutPage&#45;&gt;AboutPageModule</title>
<path fill="none" stroke="black" d="M1464,-85.08C1464,-106.12 1464,-137.8 1464,-137.8 1464,-137.8 958.82,-137.8 958.82,-137.8"/>
<polygon fill="black" stroke="black" points="958.82,-134.3 948.82,-137.8 958.82,-141.3 958.82,-134.3"/>
</g>
<!-- AboutUsTextboxComponent -->
<g id="node2" class="node">
<title>AboutUsTextboxComponent</title>
<polygon fill="#ffffb3" stroke="black" points="1407.05,-84.8 1228.95,-84.8 1228.95,-48.8 1407.05,-48.8 1407.05,-84.8"/>
<text text-anchor="middle" x="1318" y="-62.6" font-family="Times,serif" font-size="14.00">AboutUsTextboxComponent</text>
</g>
<!-- AboutUsTextboxComponent&#45;&gt;AboutPageModule -->
<g id="edge2" class="edge">
<title>AboutUsTextboxComponent&#45;&gt;AboutPageModule</title>
<path fill="none" stroke="black" d="M1318,-84.91C1318,-104.14 1318,-131.8 1318,-131.8 1318,-131.8 959.15,-131.8 959.15,-131.8"/>
<polygon fill="black" stroke="black" points="959.15,-128.3 949.15,-131.8 959.15,-135.3 959.15,-128.3"/>
</g>
<!-- FaqComponent -->
<g id="node3" class="node">
<title>FaqComponent</title>
<polygon fill="#ffffb3" stroke="black" points="1211.33,-84.8 1108.67,-84.8 1108.67,-48.8 1211.33,-48.8 1211.33,-84.8"/>
<text text-anchor="middle" x="1160" y="-62.6" font-family="Times,serif" font-size="14.00">FaqComponent</text>
</g>
<!-- FaqComponent&#45;&gt;AboutPageModule -->
<g id="edge3" class="edge">
<title>FaqComponent&#45;&gt;AboutPageModule</title>
<path fill="none" stroke="black" d="M1160,-84.82C1160,-102.17 1160,-125.8 1160,-125.8 1160,-125.8 959.04,-125.8 959.04,-125.8"/>
<polygon fill="black" stroke="black" points="959.04,-122.3 949.04,-125.8 959.04,-129.3 959.04,-122.3"/>
</g>
<!-- HeroComponent -->
<g id="node4" class="node">
<title>HeroComponent</title>
<polygon fill="#ffffb3" stroke="black" points="1090.82,-84.8 981.18,-84.8 981.18,-48.8 1090.82,-48.8 1090.82,-84.8"/>
<text text-anchor="middle" x="1036" y="-62.6" font-family="Times,serif" font-size="14.00">HeroComponent</text>
</g>
<!-- HeroComponent&#45;&gt;AboutPageModule -->
<g id="edge4" class="edge">
<title>HeroComponent&#45;&gt;AboutPageModule</title>
<path fill="none" stroke="black" d="M1036,-85.04C1036,-100.37 1036,-119.8 1036,-119.8 1036,-119.8 959.05,-119.8 959.05,-119.8"/>
<polygon fill="black" stroke="black" points="959.05,-116.3 949.05,-119.8 959.05,-123.3 959.05,-116.3"/>
</g>
<!-- HowItHelpsComponent -->
<g id="node5" class="node">
<title>HowItHelpsComponent</title>
<polygon fill="#ffffb3" stroke="black" points="962.77,-84.8 813.23,-84.8 813.23,-48.8 962.77,-48.8 962.77,-84.8"/>
<text text-anchor="middle" x="888" y="-62.6" font-family="Times,serif" font-size="14.00">HowItHelpsComponent</text>
</g>
<!-- HowItHelpsComponent&#45;&gt;AboutPageModule -->
<g id="edge5" class="edge">
<title>HowItHelpsComponent&#45;&gt;AboutPageModule</title>
<path fill="none" stroke="black" d="M888,-84.91C888,-84.91 888,-103.79 888,-103.79"/>
<polygon fill="black" stroke="black" points="884.5,-103.79 888,-113.79 891.5,-103.79 884.5,-103.79"/>
</g>
<!-- InfoWithImageComponent -->
<g id="node6" class="node">
<title>InfoWithImageComponent</title>
<polygon fill="#ffffb3" stroke="black" points="794.63,-84.8 627.37,-84.8 627.37,-48.8 794.63,-48.8 794.63,-84.8"/>
<text text-anchor="middle" x="711" y="-62.6" font-family="Times,serif" font-size="14.00">InfoWithImageComponent</text>
</g>
<!-- InfoWithImageComponent&#45;&gt;AboutPageModule -->
<g id="edge6" class="edge">
<title>InfoWithImageComponent&#45;&gt;AboutPageModule</title>
<path fill="none" stroke="black" d="M711,-85.04C711,-100.37 711,-119.8 711,-119.8 711,-119.8 817.09,-119.8 817.09,-119.8"/>
<polygon fill="black" stroke="black" points="817.09,-123.3 827.09,-119.8 817.09,-116.3 817.09,-123.3"/>
</g>
<!-- LightNavComponent -->
<g id="node7" class="node">
<title>LightNavComponent</title>
<polygon fill="#ffffb3" stroke="black" points="609.49,-84.8 474.51,-84.8 474.51,-48.8 609.49,-48.8 609.49,-84.8"/>
<text text-anchor="middle" x="542" y="-62.6" font-family="Times,serif" font-size="14.00">LightNavComponent</text>
</g>
<!-- LightNavComponent&#45;&gt;AboutPageModule -->
<g id="edge7" class="edge">
<title>LightNavComponent&#45;&gt;AboutPageModule</title>
<path fill="none" stroke="black" d="M542,-84.82C542,-102.17 542,-125.8 542,-125.8 542,-125.8 816.94,-125.8 816.94,-125.8"/>
<polygon fill="black" stroke="black" points="816.94,-129.3 826.94,-125.8 816.94,-122.3 816.94,-129.3"/>
</g>
<!-- NavComponent -->
<g id="node8" class="node">
<title>NavComponent</title>
<polygon fill="#ffffb3" stroke="black" points="456.16,-84.8 351.84,-84.8 351.84,-48.8 456.16,-48.8 456.16,-84.8"/>
<text text-anchor="middle" x="404" y="-62.6" font-family="Times,serif" font-size="14.00">NavComponent</text>
</g>
<!-- NavComponent&#45;&gt;AboutPageModule -->
<g id="edge8" class="edge">
<title>NavComponent&#45;&gt;AboutPageModule</title>
<path fill="none" stroke="black" d="M404,-84.91C404,-104.14 404,-131.8 404,-131.8 404,-131.8 817.19,-131.8 817.19,-131.8"/>
<polygon fill="black" stroke="black" points="817.19,-135.3 827.19,-131.8 817.19,-128.3 817.19,-135.3"/>
</g>
<!-- QuoteComponent -->
<g id="node9" class="node">
<title>QuoteComponent</title>
<polygon fill="#ffffb3" stroke="black" points="333.55,-84.8 218.45,-84.8 218.45,-48.8 333.55,-48.8 333.55,-84.8"/>
<text text-anchor="middle" x="276" y="-62.6" font-family="Times,serif" font-size="14.00">QuoteComponent</text>
</g>
<!-- QuoteComponent&#45;&gt;AboutPageModule -->
<g id="edge9" class="edge">
<title>QuoteComponent&#45;&gt;AboutPageModule</title>
<path fill="none" stroke="black" d="M276,-85.08C276,-106.12 276,-137.8 276,-137.8 276,-137.8 817.08,-137.8 817.08,-137.8"/>
<polygon fill="black" stroke="black" points="817.08,-141.3 827.08,-137.8 817.08,-134.3 817.08,-141.3"/>
</g>
<!-- SecondaryFooterComponent -->
<g id="node10" class="node">
<title>SecondaryFooterComponent</title>
<polygon fill="#ffffb3" stroke="black" points="200.47,-84.8 23.53,-84.8 23.53,-48.8 200.47,-48.8 200.47,-84.8"/>
<text text-anchor="middle" x="112" y="-62.6" font-family="Times,serif" font-size="14.00">SecondaryFooterComponent</text>
</g>
<!-- SecondaryFooterComponent&#45;&gt;AboutPageModule -->
<g id="edge10" class="edge">
<title>SecondaryFooterComponent&#45;&gt;AboutPageModule</title>
<path fill="none" stroke="black" d="M112,-84.89C112,-107.93 112,-144.8 112,-144.8 112,-144.8 817.11,-144.8 817.11,-144.8"/>
<polygon fill="black" stroke="black" points="817.11,-148.3 827.11,-144.8 817.11,-141.3 817.11,-148.3"/>
</g>
<!-- AboutPageRoutingModule -->
<g id="node12" class="node">
<title>AboutPageRoutingModule</title>
<polygon fill="#8dd3c7" stroke="black" points="1693.38,-84.8 1690.38,-88.8 1669.38,-88.8 1666.38,-84.8 1526.62,-84.8 1526.62,-48.8 1693.38,-48.8 1693.38,-84.8"/>
<text text-anchor="middle" x="1610" y="-62.6" font-family="Times,serif" font-size="14.00">AboutPageRoutingModule</text>
</g>
<!-- AboutPageRoutingModule&#45;&gt;AboutPageModule -->
<g id="edge11" class="edge">
<title>AboutPageRoutingModule&#45;&gt;AboutPageModule</title>
<path fill="none" stroke="black" d="M1610,-84.89C1610,-107.93 1610,-144.8 1610,-144.8 1610,-144.8 958.94,-144.8 958.94,-144.8"/>
<polygon fill="black" stroke="black" points="958.94,-141.3 948.94,-144.8 958.94,-148.3 958.94,-141.3"/>
</g>
</g>
</svg>
