<?xml version="1.0" encoding="UTF-8" standalone="no"?>
<!DOCTYPE svg PUBLIC "-//W3C//DTD SVG 1.1//EN"
 "http://www.w3.org/Graphics/SVG/1.1/DTD/svg11.dtd">
<!-- Generated by graphviz version 5.0.0 (20220707.1540)
 -->
<!-- Title: dependencies Pages: 1 -->
<svg width="1410pt" height="174pt"
 viewBox="0.00 0.00 1410.00 173.80" xmlns="http://www.w3.org/2000/svg" xmlns:xlink="http://www.w3.org/1999/xlink">
<g id="graph0" class="graph" transform="scale(1 1) rotate(0) translate(4 169.8)">
<title>dependencies</title>
<polygon fill="white" stroke="transparent" points="-4,4 -4,-169.8 1406,-169.8 1406,4 -4,4"/>
<text text-anchor="middle" x="701" y="-8.2" font-family="sans-serif" font-size="14.00">dependencies</text>
<g id="clust1" class="cluster">
<title>cluster_HomePageModule</title>
<polygon fill="none" stroke="black" stroke-dasharray="1,5" points="8,-32.8 8,-157.8 1394,-157.8 1394,-32.8 8,-32.8"/>
</g>
<g id="clust11" class="cluster">
<title>cluster_HomePageModule_imports</title>
<polygon fill="none" stroke="black" points="1204,-40.8 1204,-92.8 1386,-92.8 1386,-40.8 1204,-40.8"/>
</g>
<g id="clust2" class="cluster">
<title>cluster_HomePageModule_declarations</title>
<polygon fill="none" stroke="black" points="16,-40.8 16,-92.8 1196,-92.8 1196,-40.8 16,-40.8"/>
</g>
<!-- FollowUsComponent -->
<g id="node1" class="node">
<title>FollowUsComponent</title>
<polygon fill="#ffffb3" stroke="black" points="1188.07,-84.8 1051.93,-84.8 1051.93,-48.8 1188.07,-48.8 1188.07,-84.8"/>
<text text-anchor="middle" x="1120" y="-62.6" font-family="Times,serif" font-size="14.00">FollowUsComponent</text>
</g>
<!-- HomePageModule -->
<g id="node9" class="node">
<title>HomePageModule</title>
<polygon fill="#8dd3c7" stroke="black" points="761.48,-149.8 758.48,-153.8 737.48,-153.8 734.48,-149.8 640.52,-149.8 640.52,-113.8 761.48,-113.8 761.48,-149.8"/>
<text text-anchor="middle" x="701" y="-127.6" font-family="Times,serif" font-size="14.00">HomePageModule</text>
</g>
<!-- FollowUsComponent&#45;&gt;HomePageModule -->
<g id="edge1" class="edge">
<title>FollowUsComponent&#45;&gt;HomePageModule</title>
<path fill="none" stroke="black" d="M1120,-84.91C1120,-104.14 1120,-131.8 1120,-131.8 1120,-131.8 771.93,-131.8 771.93,-131.8"/>
<polygon fill="black" stroke="black" points="771.93,-128.3 761.93,-131.8 771.93,-135.3 771.93,-128.3"/>
</g>
<!-- FooterComponent -->
<g id="node2" class="node">
<title>FooterComponent</title>
<polygon fill="#ffffb3" stroke="black" points="1033.88,-84.8 916.12,-84.8 916.12,-48.8 1033.88,-48.8 1033.88,-84.8"/>
<text text-anchor="middle" x="975" y="-62.6" font-family="Times,serif" font-size="14.00">FooterComponent</text>
</g>
<!-- FooterComponent&#45;&gt;HomePageModule -->
<g id="edge2" class="edge">
<title>FooterComponent&#45;&gt;HomePageModule</title>
<path fill="none" stroke="black" d="M975,-84.83C975,-101.2 975,-122.8 975,-122.8 975,-122.8 771.81,-122.8 771.81,-122.8"/>
<polygon fill="black" stroke="black" points="771.81,-119.3 761.81,-122.8 771.81,-126.3 771.81,-119.3"/>
</g>
<!-- FourGoalsComponent -->
<g id="node3" class="node">
<title>FourGoalsComponent</title>
<polygon fill="#ffffb3" stroke="black" points="898.44,-84.8 757.56,-84.8 757.56,-48.8 898.44,-48.8 898.44,-84.8"/>
<text text-anchor="middle" x="828" y="-62.6" font-family="Times,serif" font-size="14.00">FourGoalsComponent</text>
</g>
<!-- FourGoalsComponent&#45;&gt;HomePageModule -->
<g id="edge3" class="edge">
<title>FourGoalsComponent&#45;&gt;HomePageModule</title>
<path fill="none" stroke="black" d="M757.53,-66.8C752.14,-66.8 748.75,-66.8 748.75,-66.8 748.75,-66.8 748.75,-103.69 748.75,-103.69"/>
<polygon fill="black" stroke="black" points="745.25,-103.69 748.75,-113.69 752.25,-103.69 745.25,-103.69"/>
</g>
<!-- HomePage -->
<g id="node4" class="node">
<title>HomePage</title>
<polygon fill="#ffffb3" stroke="black" points="739.93,-84.8 662.07,-84.8 662.07,-48.8 739.93,-48.8 739.93,-84.8"/>
<text text-anchor="middle" x="701" y="-62.6" font-family="Times,serif" font-size="14.00">HomePage</text>
</g>
<!-- HomePage&#45;&gt;HomePageModule -->
<g id="edge4" class="edge">
<title>HomePage&#45;&gt;HomePageModule</title>
<path fill="none" stroke="black" d="M701,-84.91C701,-84.91 701,-103.79 701,-103.79"/>
<polygon fill="black" stroke="black" points="697.5,-103.79 701,-113.79 704.5,-103.79 697.5,-103.79"/>
</g>
<!-- HowHelpBusinessComponent -->
<g id="node5" class="node">
<title>HowHelpBusinessComponent</title>
<polygon fill="#ffffb3" stroke="black" points="644.55,-84.8 459.45,-84.8 459.45,-48.8 644.55,-48.8 644.55,-84.8"/>
<text text-anchor="middle" x="552" y="-62.6" font-family="Times,serif" font-size="14.00">HowHelpBusinessComponent</text>
</g>
<!-- HowHelpBusinessComponent&#45;&gt;HomePageModule -->
<g id="edge5" class="edge">
<title>HowHelpBusinessComponent&#45;&gt;HomePageModule</title>
<path fill="none" stroke="black" d="M644.87,-66.8C650.25,-66.8 653.53,-66.8 653.53,-66.8 653.53,-66.8 653.53,-103.69 653.53,-103.69"/>
<polygon fill="black" stroke="black" points="650.03,-103.69 653.53,-113.69 657.03,-103.69 650.03,-103.69"/>
</g>
<!-- LightNavComponent -->
<g id="node6" class="node">
<title>LightNavComponent</title>
<polygon fill="#ffffb3" stroke="black" points="441.49,-84.8 306.51,-84.8 306.51,-48.8 441.49,-48.8 441.49,-84.8"/>
<text text-anchor="middle" x="374" y="-62.6" font-family="Times,serif" font-size="14.00">LightNavComponent</text>
</g>
<!-- LightNavComponent&#45;&gt;HomePageModule -->
<g id="edge6" class="edge">
<title>LightNavComponent&#45;&gt;HomePageModule</title>
<path fill="none" stroke="black" d="M374,-84.83C374,-101.2 374,-122.8 374,-122.8 374,-122.8 630.26,-122.8 630.26,-122.8"/>
<polygon fill="black" stroke="black" points="630.26,-126.3 640.26,-122.8 630.26,-119.3 630.26,-126.3"/>
</g>
<!-- SliderComponent -->
<g id="node7" class="node">
<title>SliderComponent</title>
<polygon fill="#ffffb3" stroke="black" points="288.27,-84.8 173.73,-84.8 173.73,-48.8 288.27,-48.8 288.27,-84.8"/>
<text text-anchor="middle" x="231" y="-62.6" font-family="Times,serif" font-size="14.00">SliderComponent</text>
</g>
<!-- SliderComponent&#45;&gt;HomePageModule -->
<g id="edge7" class="edge">
<title>SliderComponent&#45;&gt;HomePageModule</title>
<path fill="none" stroke="black" d="M231,-84.91C231,-104.14 231,-131.8 231,-131.8 231,-131.8 630.52,-131.8 630.52,-131.8"/>
<polygon fill="black" stroke="black" points="630.52,-135.3 640.52,-131.8 630.52,-128.3 630.52,-135.3"/>
</g>
<!-- SubHeroComponent -->
<g id="node8" class="node">
<title>SubHeroComponent</title>
<polygon fill="#ffffb3" stroke="black" points="155.6,-84.8 24.4,-84.8 24.4,-48.8 155.6,-48.8 155.6,-84.8"/>
<text text-anchor="middle" x="90" y="-62.6" font-family="Times,serif" font-size="14.00">SubHeroComponent</text>
</g>
<!-- SubHeroComponent&#45;&gt;HomePageModule -->
<g id="edge8" class="edge">
<title>SubHeroComponent&#45;&gt;HomePageModule</title>
<path fill="none" stroke="black" d="M90,-85.09C90,-107.01 90,-140.8 90,-140.8 90,-140.8 630.46,-140.8 630.46,-140.8"/>
<polygon fill="black" stroke="black" points="630.46,-144.3 640.46,-140.8 630.46,-137.3 630.46,-144.3"/>
</g>
<!-- HomePageRoutingModule -->
<g id="node10" class="node">
<title>HomePageRoutingModule</title>
<polygon fill="#8dd3c7" stroke="black" points="1378.1,-84.8 1375.1,-88.8 1354.1,-88.8 1351.1,-84.8 1211.9,-84.8 1211.9,-48.8 1378.1,-48.8 1378.1,-84.8"/>
<text text-anchor="middle" x="1295" y="-62.6" font-family="Times,serif" font-size="14.00">HomePageRoutingModule</text>
</g>
<!-- HomePageRoutingModule&#45;&gt;HomePageModule -->
<g id="edge9" class="edge">
<title>HomePageRoutingModule&#45;&gt;HomePageModule</title>
<path fill="none" stroke="black" d="M1295,-85.09C1295,-107.01 1295,-140.8 1295,-140.8 1295,-140.8 771.5,-140.8 771.5,-140.8"/>
<polygon fill="black" stroke="black" points="771.5,-137.3 761.5,-140.8 771.5,-144.3 771.5,-137.3"/>
</g>
</g>
</svg>
