<?xml version="1.0" encoding="UTF-8" standalone="no"?>
<!DOCTYPE svg PUBLIC "-//W3C//DTD SVG 1.1//EN"
 "http://www.w3.org/Graphics/SVG/1.1/DTD/svg11.dtd">
<!-- Generated by graphviz version 5.0.0 (20220707.1540)
 -->
<!-- Title: dependencies Pages: 1 -->
<svg width="2415pt" height="174pt"
 viewBox="0.00 0.00 2415.00 173.80" xmlns="http://www.w3.org/2000/svg" xmlns:xlink="http://www.w3.org/1999/xlink">
<g id="graph0" class="graph" transform="scale(1 1) rotate(0) translate(4 169.8)">
<title>dependencies</title>
<polygon fill="white" stroke="transparent" points="-4,4 -4,-169.8 2411,-169.8 2411,4 -4,4"/>
<text text-anchor="middle" x="1203.5" y="-8.2" font-family="sans-serif" font-size="14.00">dependencies</text>
<g id="clust1" class="cluster">
<title>cluster_PovertyPageModule</title>
<polygon fill="none" stroke="black" stroke-dasharray="1,5" points="8,-32.8 8,-157.8 2399,-157.8 2399,-32.8 8,-32.8"/>
</g>
<g id="clust17" class="cluster">
<title>cluster_PovertyPageModule_imports</title>
<polygon fill="none" stroke="black" points="2199,-40.8 2199,-92.8 2391,-92.8 2391,-40.8 2199,-40.8"/>
</g>
<g id="clust2" class="cluster">
<title>cluster_PovertyPageModule_declarations</title>
<polygon fill="none" stroke="black" points="16,-40.8 16,-92.8 2191,-92.8 2191,-40.8 16,-40.8"/>
</g>
<!-- DefaultListWithTextComponent -->
<g id="node1" class="node">
<title>DefaultListWithTextComponent</title>
<polygon fill="#ffffb3" stroke="black" points="2183.24,-84.8 1984.76,-84.8 1984.76,-48.8 2183.24,-48.8 2183.24,-84.8"/>
<text text-anchor="middle" x="2084" y="-62.6" font-family="Times,serif" font-size="14.00">DefaultListWithTextComponent</text>
</g>
<!-- PovertyPageModule -->
<g id="node15" class="node">
<title>PovertyPageModule</title>
<polygon fill="#8dd3c7" stroke="black" points="1260.32,-149.8 1257.32,-153.8 1236.32,-153.8 1233.32,-149.8 1129.68,-149.8 1129.68,-113.8 1260.32,-113.8 1260.32,-149.8"/>
<text text-anchor="middle" x="1195" y="-127.6" font-family="Times,serif" font-size="14.00">PovertyPageModule</text>
</g>
<!-- DefaultListWithTextComponent&#45;&gt;PovertyPageModule -->
<g id="edge1" class="edge">
<title>DefaultListWithTextComponent&#45;&gt;PovertyPageModule</title>
<path fill="none" stroke="black" d="M2084,-85.09C2084,-107.01 2084,-140.8 2084,-140.8 2084,-140.8 1270.37,-140.8 1270.37,-140.8"/>
<polygon fill="black" stroke="black" points="1270.37,-137.3 1260.37,-140.8 1270.37,-144.3 1270.37,-137.3"/>
</g>
<!-- DefaultTextComponent -->
<g id="node2" class="node">
<title>DefaultTextComponent</title>
<polygon fill="#ffffb3" stroke="black" points="1966.47,-84.8 1817.53,-84.8 1817.53,-48.8 1966.47,-48.8 1966.47,-84.8"/>
<text text-anchor="middle" x="1892" y="-62.6" font-family="Times,serif" font-size="14.00">DefaultTextComponent</text>
</g>
<!-- DefaultTextComponent&#45;&gt;PovertyPageModule -->
<g id="edge2" class="edge">
<title>DefaultTextComponent&#45;&gt;PovertyPageModule</title>
<path fill="none" stroke="black" d="M1892,-84.83C1892,-105.57 1892,-136.8 1892,-136.8 1892,-136.8 1270.26,-136.8 1270.26,-136.8"/>
<polygon fill="black" stroke="black" points="1270.26,-133.3 1260.26,-136.8 1270.26,-140.3 1270.26,-133.3"/>
</g>
<!-- FactBoxComponent -->
<g id="node3" class="node">
<title>FactBoxComponent</title>
<polygon fill="#ffffb3" stroke="black" points="1799.27,-84.8 1670.73,-84.8 1670.73,-48.8 1799.27,-48.8 1799.27,-84.8"/>
<text text-anchor="middle" x="1735" y="-62.6" font-family="Times,serif" font-size="14.00">FactBoxComponent</text>
</g>
<!-- FactBoxComponent&#45;&gt;PovertyPageModule -->
<g id="edge3" class="edge">
<title>FactBoxComponent&#45;&gt;PovertyPageModule</title>
<path fill="none" stroke="black" d="M1735,-84.91C1735,-104.14 1735,-131.8 1735,-131.8 1735,-131.8 1270.41,-131.8 1270.41,-131.8"/>
<polygon fill="black" stroke="black" points="1270.41,-128.3 1260.41,-131.8 1270.41,-135.3 1270.41,-128.3"/>
</g>
<!-- HeroComponent -->
<g id="node4" class="node">
<title>HeroComponent</title>
<polygon fill="#ffffb3" stroke="black" points="1652.82,-84.8 1543.18,-84.8 1543.18,-48.8 1652.82,-48.8 1652.82,-84.8"/>
<text text-anchor="middle" x="1598" y="-62.6" font-family="Times,serif" font-size="14.00">HeroComponent</text>
</g>
<!-- HeroComponent&#45;&gt;PovertyPageModule -->
<g id="edge4" class="edge">
<title>HeroComponent&#45;&gt;PovertyPageModule</title>
<path fill="none" stroke="black" d="M1598,-85.1C1598,-103.07 1598,-127.8 1598,-127.8 1598,-127.8 1270.2,-127.8 1270.2,-127.8"/>
<polygon fill="black" stroke="black" points="1270.2,-124.3 1260.2,-127.8 1270.2,-131.3 1270.2,-124.3"/>
</g>
<!-- ImageComponent -->
<g id="node5" class="node">
<title>ImageComponent</title>
<polygon fill="#ffffb3" stroke="black" points="1525.31,-84.8 1408.69,-84.8 1408.69,-48.8 1525.31,-48.8 1525.31,-84.8"/>
<text text-anchor="middle" x="1467" y="-62.6" font-family="Times,serif" font-size="14.00">ImageComponent</text>
</g>
<!-- ImageComponent&#45;&gt;PovertyPageModule -->
<g id="edge5" class="edge">
<title>ImageComponent&#45;&gt;PovertyPageModule</title>
<path fill="none" stroke="black" d="M1467,-84.83C1467,-101.2 1467,-122.8 1467,-122.8 1467,-122.8 1270.5,-122.8 1270.5,-122.8"/>
<polygon fill="black" stroke="black" points="1270.5,-119.3 1260.5,-122.8 1270.5,-126.3 1270.5,-119.3"/>
</g>
<!-- NavComponent -->
<g id="node6" class="node">
<title>NavComponent</title>
<polygon fill="#ffffb3" stroke="black" points="1391.16,-84.8 1286.84,-84.8 1286.84,-48.8 1391.16,-48.8 1391.16,-84.8"/>
<text text-anchor="middle" x="1339" y="-62.6" font-family="Times,serif" font-size="14.00">NavComponent</text>
</g>
<!-- NavComponent&#45;&gt;PovertyPageModule -->
<g id="edge6" class="edge">
<title>NavComponent&#45;&gt;PovertyPageModule</title>
<path fill="none" stroke="black" d="M1339,-84.99C1339,-99.98 1339,-118.8 1339,-118.8 1339,-118.8 1270.26,-118.8 1270.26,-118.8"/>
<polygon fill="black" stroke="black" points="1270.26,-115.3 1260.26,-118.8 1270.26,-122.3 1270.26,-115.3"/>
</g>
<!-- NextProjectComponent -->
<g id="node7" class="node">
<title>NextProjectComponent</title>
<polygon fill="#ffffb3" stroke="black" points="1269.2,-84.8 1120.8,-84.8 1120.8,-48.8 1269.2,-48.8 1269.2,-84.8"/>
<text text-anchor="middle" x="1195" y="-62.6" font-family="Times,serif" font-size="14.00">NextProjectComponent</text>
</g>
<!-- NextProjectComponent&#45;&gt;PovertyPageModule -->
<g id="edge7" class="edge">
<title>NextProjectComponent&#45;&gt;PovertyPageModule</title>
<path fill="none" stroke="black" d="M1195,-84.91C1195,-84.91 1195,-103.79 1195,-103.79"/>
<polygon fill="black" stroke="black" points="1191.5,-103.79 1195,-113.79 1198.5,-103.79 1191.5,-103.79"/>
</g>
<!-- PovertyPage -->
<g id="node8" class="node">
<title>PovertyPage</title>
<polygon fill="#ffffb3" stroke="black" points="1103.27,-84.8 1016.73,-84.8 1016.73,-48.8 1103.27,-48.8 1103.27,-84.8"/>
<text text-anchor="middle" x="1060" y="-62.6" font-family="Times,serif" font-size="14.00">PovertyPage</text>
</g>
<!-- PovertyPage&#45;&gt;PovertyPageModule -->
<g id="edge8" class="edge">
<title>PovertyPage&#45;&gt;PovertyPageModule</title>
<path fill="none" stroke="black" d="M1060,-84.99C1060,-99.98 1060,-118.8 1060,-118.8 1060,-118.8 1119.48,-118.8 1119.48,-118.8"/>
<polygon fill="black" stroke="black" points="1119.48,-122.3 1129.48,-118.8 1119.48,-115.3 1119.48,-122.3"/>
</g>
<!-- QuoteComponent -->
<g id="node9" class="node">
<title>QuoteComponent</title>
<polygon fill="#ffffb3" stroke="black" points="998.55,-84.8 883.45,-84.8 883.45,-48.8 998.55,-48.8 998.55,-84.8"/>
<text text-anchor="middle" x="941" y="-62.6" font-family="Times,serif" font-size="14.00">QuoteComponent</text>
</g>
<!-- QuoteComponent&#45;&gt;PovertyPageModule -->
<g id="edge9" class="edge">
<title>QuoteComponent&#45;&gt;PovertyPageModule</title>
<path fill="none" stroke="black" d="M941,-84.83C941,-101.2 941,-122.8 941,-122.8 941,-122.8 1119.59,-122.8 1119.59,-122.8"/>
<polygon fill="black" stroke="black" points="1119.59,-126.3 1129.59,-122.8 1119.59,-119.3 1119.59,-126.3"/>
</g>
<!-- SecondaryDefaultTextComponent -->
<g id="node10" class="node">
<title>SecondaryDefaultTextComponent</title>
<polygon fill="#ffffb3" stroke="black" points="865.06,-84.8 656.94,-84.8 656.94,-48.8 865.06,-48.8 865.06,-84.8"/>
<text text-anchor="middle" x="761" y="-62.6" font-family="Times,serif" font-size="14.00">SecondaryDefaultTextComponent</text>
</g>
<!-- SecondaryDefaultTextComponent&#45;&gt;PovertyPageModule -->
<g id="edge10" class="edge">
<title>SecondaryDefaultTextComponent&#45;&gt;PovertyPageModule</title>
<path fill="none" stroke="black" d="M761,-85.1C761,-103.07 761,-127.8 761,-127.8 761,-127.8 1119.56,-127.8 1119.56,-127.8"/>
<polygon fill="black" stroke="black" points="1119.56,-131.3 1129.56,-127.8 1119.56,-124.3 1119.56,-131.3"/>
</g>
<!-- SecondaryFooterComponent -->
<g id="node11" class="node">
<title>SecondaryFooterComponent</title>
<polygon fill="#ffffb3" stroke="black" points="638.47,-84.8 461.53,-84.8 461.53,-48.8 638.47,-48.8 638.47,-84.8"/>
<text text-anchor="middle" x="550" y="-62.6" font-family="Times,serif" font-size="14.00">SecondaryFooterComponent</text>
</g>
<!-- SecondaryFooterComponent&#45;&gt;PovertyPageModule -->
<g id="edge11" class="edge">
<title>SecondaryFooterComponent&#45;&gt;PovertyPageModule</title>
<path fill="none" stroke="black" d="M550,-84.91C550,-104.14 550,-131.8 550,-131.8 550,-131.8 1119.6,-131.8 1119.6,-131.8"/>
<polygon fill="black" stroke="black" points="1119.6,-135.3 1129.6,-131.8 1119.6,-128.3 1119.6,-135.3"/>
</g>
<!-- SubheroComponent -->
<g id="node12" class="node">
<title>SubheroComponent</title>
<polygon fill="#ffffb3" stroke="black" points="443.99,-84.8 316.01,-84.8 316.01,-48.8 443.99,-48.8 443.99,-84.8"/>
<text text-anchor="middle" x="380" y="-62.6" font-family="Times,serif" font-size="14.00">SubheroComponent</text>
</g>
<!-- SubheroComponent&#45;&gt;PovertyPageModule -->
<g id="edge12" class="edge">
<title>SubheroComponent&#45;&gt;PovertyPageModule</title>
<path fill="none" stroke="black" d="M380,-84.83C380,-105.57 380,-136.8 380,-136.8 380,-136.8 1119.68,-136.8 1119.68,-136.8"/>
<polygon fill="black" stroke="black" points="1119.68,-140.3 1129.68,-136.8 1119.68,-133.3 1119.68,-140.3"/>
</g>
<!-- TextSliderComponent -->
<g id="node13" class="node">
<title>TextSliderComponent</title>
<polygon fill="#ffffb3" stroke="black" points="298.43,-84.8 157.57,-84.8 157.57,-48.8 298.43,-48.8 298.43,-84.8"/>
<text text-anchor="middle" x="228" y="-62.6" font-family="Times,serif" font-size="14.00">TextSliderComponent</text>
</g>
<!-- TextSliderComponent&#45;&gt;PovertyPageModule -->
<g id="edge13" class="edge">
<title>TextSliderComponent&#45;&gt;PovertyPageModule</title>
<path fill="none" stroke="black" d="M228,-85.09C228,-107.01 228,-140.8 228,-140.8 228,-140.8 1119.67,-140.8 1119.67,-140.8"/>
<polygon fill="black" stroke="black" points="1119.67,-144.3 1129.67,-140.8 1119.67,-137.3 1119.67,-144.3"/>
</g>
<!-- VideoComponent -->
<g id="node14" class="node">
<title>VideoComponent</title>
<polygon fill="#ffffb3" stroke="black" points="139.55,-84.8 24.45,-84.8 24.45,-48.8 139.55,-48.8 139.55,-84.8"/>
<text text-anchor="middle" x="82" y="-62.6" font-family="Times,serif" font-size="14.00">VideoComponent</text>
</g>
<!-- VideoComponent&#45;&gt;PovertyPageModule -->
<g id="edge14" class="edge">
<title>VideoComponent&#45;&gt;PovertyPageModule</title>
<path fill="none" stroke="black" d="M82,-85.12C82,-108.46 82,-145.8 82,-145.8 82,-145.8 1119.53,-145.8 1119.53,-145.8"/>
<polygon fill="black" stroke="black" points="1119.53,-149.3 1129.53,-145.8 1119.53,-142.3 1119.53,-149.3"/>
</g>
<!-- PovertyPageRoutingModule -->
<g id="node16" class="node">
<title>PovertyPageRoutingModule</title>
<polygon fill="#8dd3c7" stroke="black" points="2382.94,-84.8 2379.94,-88.8 2358.94,-88.8 2355.94,-84.8 2207.06,-84.8 2207.06,-48.8 2382.94,-48.8 2382.94,-84.8"/>
<text text-anchor="middle" x="2295" y="-62.6" font-family="Times,serif" font-size="14.00">PovertyPageRoutingModule</text>
</g>
<!-- PovertyPageRoutingModule&#45;&gt;PovertyPageModule -->
<g id="edge15" class="edge">
<title>PovertyPageRoutingModule&#45;&gt;PovertyPageModule</title>
<path fill="none" stroke="black" d="M2295,-85.12C2295,-108.46 2295,-145.8 2295,-145.8 2295,-145.8 1270.52,-145.8 1270.52,-145.8"/>
<polygon fill="black" stroke="black" points="1270.52,-142.3 1260.52,-145.8 1270.52,-149.3 1270.52,-142.3"/>
</g>
</g>
</svg>
