<?xml version="1.0" encoding="UTF-8" standalone="no"?>
<!DOCTYPE svg PUBLIC "-//W3C//DTD SVG 1.1//EN"
 "http://www.w3.org/Graphics/SVG/1.1/DTD/svg11.dtd">
<!-- Generated by graphviz version 5.0.0 (20220707.1540)
 -->
<!-- Title: dependencies Pages: 1 -->
<svg width="2723pt" height="174pt"
 viewBox="0.00 0.00 2723.00 173.80" xmlns="http://www.w3.org/2000/svg" xmlns:xlink="http://www.w3.org/1999/xlink">
<g id="graph0" class="graph" transform="scale(1 1) rotate(0) translate(4 169.8)">
<title>dependencies</title>
<polygon fill="white" stroke="transparent" points="-4,4 -4,-169.8 2719,-169.8 2719,4 -4,4"/>
<text text-anchor="middle" x="1357.5" y="-8.2" font-family="sans-serif" font-size="14.00">dependencies</text>
<g id="clust1" class="cluster">
<title>cluster_WorkAndEconomicGrowthPageModule</title>
<polygon fill="none" stroke="black" stroke-dasharray="1,5" points="8,-32.8 8,-157.8 2707,-157.8 2707,-32.8 8,-32.8"/>
</g>
<g id="clust2" class="cluster">
<title>cluster_WorkAndEconomicGrowthPageModule_declarations</title>
<polygon fill="none" stroke="black" points="328,-40.8 328,-92.8 2699,-92.8 2699,-40.8 328,-40.8"/>
</g>
<g id="clust17" class="cluster">
<title>cluster_WorkAndEconomicGrowthPageModule_imports</title>
<polygon fill="none" stroke="black" points="16,-40.8 16,-92.8 320,-92.8 320,-40.8 16,-40.8"/>
</g>
<!-- BulletPointsOnTwoSectionsDefaultComponent -->
<g id="node1" class="node">
<title>BulletPointsOnTwoSectionsDefaultComponent</title>
<polygon fill="#ffffb3" stroke="black" points="2691.26,-84.8 2408.74,-84.8 2408.74,-48.8 2691.26,-48.8 2691.26,-84.8"/>
<text text-anchor="middle" x="2550" y="-62.6" font-family="Times,serif" font-size="14.00">BulletPointsOnTwoSectionsDefaultComponent</text>
</g>
<!-- WorkAndEconomicGrowthPageModule -->
<g id="node15" class="node">
<title>WorkAndEconomicGrowthPageModule</title>
<polygon fill="#8dd3c7" stroke="black" points="1590.28,-149.8 1587.28,-153.8 1566.28,-153.8 1563.28,-149.8 1347.72,-149.8 1347.72,-113.8 1590.28,-113.8 1590.28,-149.8"/>
<text text-anchor="middle" x="1469" y="-127.6" font-family="Times,serif" font-size="14.00">WorkAndEconomicGrowthPageModule</text>
</g>
<!-- BulletPointsOnTwoSectionsDefaultComponent&#45;&gt;WorkAndEconomicGrowthPageModule -->
<g id="edge1" class="edge">
<title>BulletPointsOnTwoSectionsDefaultComponent&#45;&gt;WorkAndEconomicGrowthPageModule</title>
<path fill="none" stroke="black" d="M2550,-84.89C2550,-107.93 2550,-144.8 2550,-144.8 2550,-144.8 1600.38,-144.8 1600.38,-144.8"/>
<polygon fill="black" stroke="black" points="1600.38,-141.3 1590.38,-144.8 1600.38,-148.3 1600.38,-141.3"/>
</g>
<!-- DefaultTextComponent -->
<g id="node2" class="node">
<title>DefaultTextComponent</title>
<polygon fill="#ffffb3" stroke="black" points="2390.47,-84.8 2241.53,-84.8 2241.53,-48.8 2390.47,-48.8 2390.47,-84.8"/>
<text text-anchor="middle" x="2316" y="-62.6" font-family="Times,serif" font-size="14.00">DefaultTextComponent</text>
</g>
<!-- DefaultTextComponent&#45;&gt;WorkAndEconomicGrowthPageModule -->
<g id="edge2" class="edge">
<title>DefaultTextComponent&#45;&gt;WorkAndEconomicGrowthPageModule</title>
<path fill="none" stroke="black" d="M2316,-84.84C2316,-106.46 2316,-139.8 2316,-139.8 2316,-139.8 1600.35,-139.8 1600.35,-139.8"/>
<polygon fill="black" stroke="black" points="1600.35,-136.3 1590.35,-139.8 1600.35,-143.3 1600.35,-136.3"/>
</g>
<!-- FactBoxComponent -->
<g id="node3" class="node">
<title>FactBoxComponent</title>
<polygon fill="#ffffb3" stroke="black" points="2223.27,-84.8 2094.73,-84.8 2094.73,-48.8 2223.27,-48.8 2223.27,-84.8"/>
<text text-anchor="middle" x="2159" y="-62.6" font-family="Times,serif" font-size="14.00">FactBoxComponent</text>
</g>
<!-- FactBoxComponent&#45;&gt;WorkAndEconomicGrowthPageModule -->
<g id="edge3" class="edge">
<title>FactBoxComponent&#45;&gt;WorkAndEconomicGrowthPageModule</title>
<path fill="none" stroke="black" d="M2159,-85.02C2159,-105.17 2159,-134.8 2159,-134.8 2159,-134.8 1600.37,-134.8 1600.37,-134.8"/>
<polygon fill="black" stroke="black" points="1600.37,-131.3 1590.37,-134.8 1600.37,-138.3 1600.37,-131.3"/>
</g>
<!-- HeroComponent -->
<g id="node4" class="node">
<title>HeroComponent</title>
<polygon fill="#ffffb3" stroke="black" points="2076.82,-84.8 1967.18,-84.8 1967.18,-48.8 2076.82,-48.8 2076.82,-84.8"/>
<text text-anchor="middle" x="2022" y="-62.6" font-family="Times,serif" font-size="14.00">HeroComponent</text>
</g>
<!-- HeroComponent&#45;&gt;WorkAndEconomicGrowthPageModule -->
<g id="edge4" class="edge">
<title>HeroComponent&#45;&gt;WorkAndEconomicGrowthPageModule</title>
<path fill="none" stroke="black" d="M2022,-85.02C2022,-103.63 2022,-129.8 2022,-129.8 2022,-129.8 1600.36,-129.8 1600.36,-129.8"/>
<polygon fill="black" stroke="black" points="1600.36,-126.3 1590.36,-129.8 1600.36,-133.3 1600.36,-126.3"/>
</g>
<!-- ImageComponent -->
<g id="node5" class="node">
<title>ImageComponent</title>
<polygon fill="#ffffb3" stroke="black" points="1949.31,-84.8 1832.69,-84.8 1832.69,-48.8 1949.31,-48.8 1949.31,-84.8"/>
<text text-anchor="middle" x="1891" y="-62.6" font-family="Times,serif" font-size="14.00">ImageComponent</text>
</g>
<!-- ImageComponent&#45;&gt;WorkAndEconomicGrowthPageModule -->
<g id="edge5" class="edge">
<title>ImageComponent&#45;&gt;WorkAndEconomicGrowthPageModule</title>
<path fill="none" stroke="black" d="M1891,-84.83C1891,-101.86 1891,-124.8 1891,-124.8 1891,-124.8 1600.21,-124.8 1600.21,-124.8"/>
<polygon fill="black" stroke="black" points="1600.21,-121.3 1590.21,-124.8 1600.21,-128.3 1600.21,-121.3"/>
</g>
<!-- NavComponent -->
<g id="node6" class="node">
<title>NavComponent</title>
<polygon fill="#ffffb3" stroke="black" points="1815.16,-84.8 1710.84,-84.8 1710.84,-48.8 1815.16,-48.8 1815.16,-84.8"/>
<text text-anchor="middle" x="1763" y="-62.6" font-family="Times,serif" font-size="14.00">NavComponent</text>
</g>
<!-- NavComponent&#45;&gt;WorkAndEconomicGrowthPageModule -->
<g id="edge6" class="edge">
<title>NavComponent&#45;&gt;WorkAndEconomicGrowthPageModule</title>
<path fill="none" stroke="black" d="M1763,-85.04C1763,-100.37 1763,-119.8 1763,-119.8 1763,-119.8 1600.28,-119.8 1600.28,-119.8"/>
<polygon fill="black" stroke="black" points="1600.28,-116.3 1590.28,-119.8 1600.28,-123.3 1600.28,-116.3"/>
</g>
<!-- NextProjectComponent -->
<g id="node7" class="node">
<title>NextProjectComponent</title>
<polygon fill="#ffffb3" stroke="black" points="1693.2,-84.8 1544.8,-84.8 1544.8,-48.8 1693.2,-48.8 1693.2,-84.8"/>
<text text-anchor="middle" x="1619" y="-62.6" font-family="Times,serif" font-size="14.00">NextProjectComponent</text>
</g>
<!-- NextProjectComponent&#45;&gt;WorkAndEconomicGrowthPageModule -->
<g id="edge7" class="edge">
<title>NextProjectComponent&#45;&gt;WorkAndEconomicGrowthPageModule</title>
<path fill="none" stroke="black" d="M1567.52,-84.91C1567.52,-84.91 1567.52,-103.79 1567.52,-103.79"/>
<polygon fill="black" stroke="black" points="1564.02,-103.79 1567.52,-113.79 1571.02,-103.79 1564.02,-103.79"/>
</g>
<!-- QuoteComponent -->
<g id="node8" class="node">
<title>QuoteComponent</title>
<polygon fill="#ffffb3" stroke="black" points="1526.55,-84.8 1411.45,-84.8 1411.45,-48.8 1526.55,-48.8 1526.55,-84.8"/>
<text text-anchor="middle" x="1469" y="-62.6" font-family="Times,serif" font-size="14.00">QuoteComponent</text>
</g>
<!-- QuoteComponent&#45;&gt;WorkAndEconomicGrowthPageModule -->
<g id="edge8" class="edge">
<title>QuoteComponent&#45;&gt;WorkAndEconomicGrowthPageModule</title>
<path fill="none" stroke="black" d="M1469,-84.91C1469,-84.91 1469,-103.79 1469,-103.79"/>
<polygon fill="black" stroke="black" points="1465.5,-103.79 1469,-113.79 1472.5,-103.79 1465.5,-103.79"/>
</g>
<!-- SecondaryDefaultTextComponent -->
<g id="node9" class="node">
<title>SecondaryDefaultTextComponent</title>
<polygon fill="#ffffb3" stroke="black" points="1393.06,-84.8 1184.94,-84.8 1184.94,-48.8 1393.06,-48.8 1393.06,-84.8"/>
<text text-anchor="middle" x="1289" y="-62.6" font-family="Times,serif" font-size="14.00">SecondaryDefaultTextComponent</text>
</g>
<!-- SecondaryDefaultTextComponent&#45;&gt;WorkAndEconomicGrowthPageModule -->
<g id="edge9" class="edge">
<title>SecondaryDefaultTextComponent&#45;&gt;WorkAndEconomicGrowthPageModule</title>
<path fill="none" stroke="black" d="M1370.44,-84.91C1370.44,-84.91 1370.44,-103.79 1370.44,-103.79"/>
<polygon fill="black" stroke="black" points="1366.94,-103.79 1370.44,-113.79 1373.94,-103.79 1366.94,-103.79"/>
</g>
<!-- SecondaryFooterComponent -->
<g id="node10" class="node">
<title>SecondaryFooterComponent</title>
<polygon fill="#ffffb3" stroke="black" points="1166.47,-84.8 989.53,-84.8 989.53,-48.8 1166.47,-48.8 1166.47,-84.8"/>
<text text-anchor="middle" x="1078" y="-62.6" font-family="Times,serif" font-size="14.00">SecondaryFooterComponent</text>
</g>
<!-- SecondaryFooterComponent&#45;&gt;WorkAndEconomicGrowthPageModule -->
<g id="edge10" class="edge">
<title>SecondaryFooterComponent&#45;&gt;WorkAndEconomicGrowthPageModule</title>
<path fill="none" stroke="black" d="M1078,-85.04C1078,-100.37 1078,-119.8 1078,-119.8 1078,-119.8 1337.7,-119.8 1337.7,-119.8"/>
<polygon fill="black" stroke="black" points="1337.7,-123.3 1347.7,-119.8 1337.7,-116.3 1337.7,-123.3"/>
</g>
<!-- SubheroComponent -->
<g id="node11" class="node">
<title>SubheroComponent</title>
<polygon fill="#ffffb3" stroke="black" points="971.99,-84.8 844.01,-84.8 844.01,-48.8 971.99,-48.8 971.99,-84.8"/>
<text text-anchor="middle" x="908" y="-62.6" font-family="Times,serif" font-size="14.00">SubheroComponent</text>
</g>
<!-- SubheroComponent&#45;&gt;WorkAndEconomicGrowthPageModule -->
<g id="edge11" class="edge">
<title>SubheroComponent&#45;&gt;WorkAndEconomicGrowthPageModule</title>
<path fill="none" stroke="black" d="M908,-84.83C908,-101.86 908,-124.8 908,-124.8 908,-124.8 1337.62,-124.8 1337.62,-124.8"/>
<polygon fill="black" stroke="black" points="1337.62,-128.3 1347.62,-124.8 1337.62,-121.3 1337.62,-128.3"/>
</g>
<!-- TextSliderComponent -->
<g id="node12" class="node">
<title>TextSliderComponent</title>
<polygon fill="#ffffb3" stroke="black" points="826.43,-84.8 685.57,-84.8 685.57,-48.8 826.43,-48.8 826.43,-84.8"/>
<text text-anchor="middle" x="756" y="-62.6" font-family="Times,serif" font-size="14.00">TextSliderComponent</text>
</g>
<!-- TextSliderComponent&#45;&gt;WorkAndEconomicGrowthPageModule -->
<g id="edge12" class="edge">
<title>TextSliderComponent&#45;&gt;WorkAndEconomicGrowthPageModule</title>
<path fill="none" stroke="black" d="M756,-85.02C756,-103.63 756,-129.8 756,-129.8 756,-129.8 1337.65,-129.8 1337.65,-129.8"/>
<polygon fill="black" stroke="black" points="1337.65,-133.3 1347.65,-129.8 1337.65,-126.3 1337.65,-133.3"/>
</g>
<!-- VideoComponent -->
<g id="node13" class="node">
<title>VideoComponent</title>
<polygon fill="#ffffb3" stroke="black" points="667.55,-84.8 552.45,-84.8 552.45,-48.8 667.55,-48.8 667.55,-84.8"/>
<text text-anchor="middle" x="610" y="-62.6" font-family="Times,serif" font-size="14.00">VideoComponent</text>
</g>
<!-- VideoComponent&#45;&gt;WorkAndEconomicGrowthPageModule -->
<g id="edge13" class="edge">
<title>VideoComponent&#45;&gt;WorkAndEconomicGrowthPageModule</title>
<path fill="none" stroke="black" d="M610,-85.02C610,-105.17 610,-134.8 610,-134.8 610,-134.8 1337.75,-134.8 1337.75,-134.8"/>
<polygon fill="black" stroke="black" points="1337.75,-138.3 1347.75,-134.8 1337.75,-131.3 1337.75,-138.3"/>
</g>
<!-- WorkAndEconomicGrowthPage -->
<g id="node14" class="node">
<title>WorkAndEconomicGrowthPage</title>
<polygon fill="#ffffb3" stroke="black" points="534.23,-84.8 335.77,-84.8 335.77,-48.8 534.23,-48.8 534.23,-84.8"/>
<text text-anchor="middle" x="435" y="-62.6" font-family="Times,serif" font-size="14.00">WorkAndEconomicGrowthPage</text>
</g>
<!-- WorkAndEconomicGrowthPage&#45;&gt;WorkAndEconomicGrowthPageModule -->
<g id="edge14" class="edge">
<title>WorkAndEconomicGrowthPage&#45;&gt;WorkAndEconomicGrowthPageModule</title>
<path fill="none" stroke="black" d="M435,-84.84C435,-106.46 435,-139.8 435,-139.8 435,-139.8 1337.86,-139.8 1337.86,-139.8"/>
<polygon fill="black" stroke="black" points="1337.86,-143.3 1347.86,-139.8 1337.86,-136.3 1337.86,-143.3"/>
</g>
<!-- WorkAndEconomicGrowthPageRoutingModule -->
<g id="node16" class="node">
<title>WorkAndEconomicGrowthPageRoutingModule</title>
<polygon fill="#8dd3c7" stroke="black" points="311.9,-84.8 308.9,-88.8 287.9,-88.8 284.9,-84.8 24.1,-84.8 24.1,-48.8 311.9,-48.8 311.9,-84.8"/>
<text text-anchor="middle" x="168" y="-62.6" font-family="Times,serif" font-size="14.00">WorkAndEconomicGrowthPageRoutingModule</text>
</g>
<!-- WorkAndEconomicGrowthPageRoutingModule&#45;&gt;WorkAndEconomicGrowthPageModule -->
<g id="edge15" class="edge">
<title>WorkAndEconomicGrowthPageRoutingModule&#45;&gt;WorkAndEconomicGrowthPageModule</title>
<path fill="none" stroke="black" d="M168,-84.89C168,-107.93 168,-144.8 168,-144.8 168,-144.8 1337.77,-144.8 1337.77,-144.8"/>
<polygon fill="black" stroke="black" points="1337.77,-148.3 1347.77,-144.8 1337.77,-141.3 1337.77,-148.3"/>
</g>
</g>
</svg>
